<?xml version="1.0" encoding="iso-8859-1"?>
<!-- Generator: Adobe Illustrator 19.0.0, SVG Export Plug-In . SVG Version: 6.00 Build 0)  -->
<svg version="1.1" id="Layer_1" xmlns="http://www.w3.org/2000/svg" xmlns:xlink="http://www.w3.org/1999/xlink" x="0px" y="0px"
	 viewBox="0 0 512 512" style="enable-background:new 0 0 512 512;" xml:space="preserve">
<polygon points="104,198.384 93.44,186.352 258.816,41.32 418.44,186.448 407.688,198.296 258.624,62.76 "/>
<circle style="fill:#E21B1B;" cx="258.72" cy="64.496" r="37.48"/>
<rect x="8" y="185.216" style="fill:#FFFFFF;" width="496" height="291.744"/>
<path style="fill:#E21B1B;" d="M496,193.248v275.736H16V193.248H496 M512,177.248H0v307.736h512V177.248L512,177.248z"/>
<g>
	<path style="fill:#939393;" d="M80.12,361.648c6.656,3.408,16.872,6.816,27.432,6.816c11.352,0,17.36-4.712,17.36-11.856
		c0-6.816-5.192-10.704-18.344-15.424c-18.184-6.328-30.024-16.384-30.024-32.296c0-18.656,15.576-32.944,41.384-32.944
		c12.328,0,21.424,2.6,27.912,5.52l-5.52,19.952c-4.376-2.104-12.168-5.184-22.872-5.184c-10.712,0-15.912,4.864-15.912,10.544
		c0,6.976,6.168,10.056,20.288,15.408c19.32,7.144,28.4,17.208,28.4,32.624c0,18.344-14.112,33.92-44.136,33.92
		c-12.496,0-24.832-3.248-31-6.656L80.12,361.648z"/>
	<path style="fill:#939393;" d="M192.448,359.048l-7.792,28.08h-25.64l33.432-109.384h32.456l33.92,109.384h-26.616l-8.44-28.08
		H192.448z M220.2,340.544l-6.816-23.208c-1.944-6.488-3.896-14.6-5.52-21.088h-0.32c-1.624,6.488-3.248,14.76-5.032,21.088
		l-6.488,23.208H220.2z"/>
	<path style="fill:#939393;" d="M289.68,387.128l-35.048-109.384h27.104l13.304,46.264c3.728,12.976,7.136,25.48,9.728,39.104h0.488
		c2.76-13.136,6.168-26.128,9.896-38.624l13.968-46.736h26.288L318.56,387.128H289.68z"/>
	<path style="fill:#939393;" d="M432.2,340.88h-40.24v25.968h44.952v20.288h-69.784V277.744h67.512v20.296h-42.68v22.712h40.24
		V340.88z"/>
</g>
<g>
</g>
<g>
</g>
<g>
</g>
<g>
</g>
<g>
</g>
<g>
</g>
<g>
</g>
<g>
</g>
<g>
</g>
<g>
</g>
<g>
</g>
<g>
</g>
<g>
</g>
<g>
</g>
<g>
</g>
</svg>
