<?xml version="1.0" encoding="iso-8859-1"?>
<!-- Generator: Adobe Illustrator 19.0.0, SVG Export Plug-In . SVG Version: 6.00 Build 0)  -->
<svg version="1.1" id="Layer_1" xmlns="http://www.w3.org/2000/svg" xmlns:xlink="http://www.w3.org/1999/xlink" x="0px" y="0px"
	 viewBox="0 0 512 512" style="enable-background:new 0 0 512 512;" xml:space="preserve">
<circle style="fill:#A2DFE9;" cx="256" cy="256" r="256"/>
<path d="M394.768,137.928c4.32,0,7.968,3.648,7.968,7.968v176.616c0,4.32-3.648,7.968-7.968,7.968h-50.464H327.04v17.264v39.776
	l-66.568-53.256l-4.728-3.784h-6.056H117.232c-4.32,0-7.968-3.648-7.968-7.968V145.896c0-4.32,3.648-7.968,7.968-7.968H394.768
	 M394.768,120.664H117.232c-13.88,0-25.232,11.352-25.232,25.232v176.616c0,13.88,11.352,25.232,25.232,25.232h132.464
	l94.616,75.696v-75.696h50.464c13.88,0,25.232-11.352,25.232-25.232V145.896C420,132.016,408.648,120.664,394.768,120.664
	L394.768,120.664z"/>
<g>
</g>
<g>
</g>
<g>
</g>
<g>
</g>
<g>
</g>
<g>
</g>
<g>
</g>
<g>
</g>
<g>
</g>
<g>
</g>
<g>
</g>
<g>
</g>
<g>
</g>
<g>
</g>
<g>
</g>
</svg>
